<?xml version="1.0" standalone="no"?>
<!DOCTYPE svg PUBLIC "-//W3C//DTD SVG 20010904//EN"
 "http://www.w3.org/TR/2001/REC-SVG-20010904/DTD/svg10.dtd">
<svg version="1.0" xmlns="http://www.w3.org/2000/svg"
 width="700.000000pt" height="700.000000pt" viewBox="0 0 700.000000 700.000000"
 preserveAspectRatio="xMidYMid meet">
<metadata>
Created by potrace 1.14, written by Peter Selinger 2001-2017
</metadata>
<g transform="translate(0.000000,700.000000) scale(0.100000,-0.100000)"
fill="#000000" stroke="none">
<path d="M4315 6073 c-121 -2 -994 -4 -1940 -6 -946 -1 -1729 -5 -1740 -9 -11
-3 -40 -11 -65 -18 -61 -16 -191 -81 -243 -121 -107 -84 -229 -251 -252 -345
-3 -11 -12 -48 -21 -84 -16 -60 -17 -221 -17 -1990 0 -1059 3 -1950 7 -1980 4
-30 22 -93 40 -140 98 -263 346 -454 618 -476 97 -7 4208 -9 4248 -1 19 4 48
9 65 13 51 9 173 62 232 100 94 60 160 137 360 419 106 149 203 286 217 305
14 19 86 121 160 225 74 105 182 258 241 340 160 226 391 551 512 723 59 84
125 176 146 205 76 104 105 194 92 296 -9 76 -39 134 -144 281 -49 69 -104
147 -123 173 -18 27 -38 54 -43 60 -6 7 -42 57 -80 112 -39 54 -88 125 -110
156 -22 31 -105 149 -185 261 -79 111 -212 298 -293 413 -82 116 -175 246
-207 290 -31 44 -123 174 -204 288 -140 196 -153 212 -244 282 -172 133 -326
210 -440 221 -72 7 -305 10 -587 7z"/>
</g>
</svg>
